<?xml version="1.0" encoding="utf-8"?><svg viewBox="0 0 126 116" xmlns="http://www.w3.org/2000/svg" xmlns:xlink="http://www.w3.org/1999/xlink"><style>:root>svg{display:none}:root>svg:target{display:block}</style><svg fill="none" viewBox="0 0 34 34" id="approach" xmlns="http://www.w3.org/2000/svg"><path d="M25.866 5.805a2.97 2.97 0 0 0-.875-2.112L22.172.875A3.055 3.055 0 0 0 20.041 0h-.17v5.977h5.995v-.172Z" fill="#2405F2"/><path d="M18.191 20.555c.19-.579.524-1.117.957-1.554l6.745-6.717V7.969h-7c-.55 0-.963-.446-.963-.996V0H2.988A2.992 2.992 0 0 0 0 2.988v28.024A2.992 2.992 0 0 0 2.988 34h19.89c1.648 0 3.015-1.34 3.015-2.988v-7.434l-1.095 1.068c-.443.44-.963.76-1.549.955l-3.167 1.057-.482.026a2.5 2.5 0 0 1-2.022-1.037 2.498 2.498 0 0 1-.338-2.244l.951-2.848ZM4.981 17.93h9.928a.996.996 0 1 1 0 1.992H4.98a.996.996 0 1 1 0-1.992Zm-.997-2.989c0-.55.446-.996.996-.996h9.93a.996.996 0 1 1 0 1.992H4.98a.996.996 0 0 1-.996-.996Zm0 7.97c0-.551.446-.997.996-.997h9.93a.996.996 0 1 1 0 1.992H4.98a.995.995 0 0 1-.996-.996Zm14.91 4.98a.995.995 0 1 1 0 1.992h-5.977a.995.995 0 1 1 0-1.992h5.976ZM4.98 11.953a.996.996 0 1 1 0-1.992h13.913a.996.996 0 1 1 0 1.992H4.98Z" fill="#2405F2"/><path d="m19.996 21.436-.867 2.6c-.13.39.24.76.63.63l2.599-.867-2.362-2.363ZM27.732 13.235l-6.56 6.56 2.83 2.83 6.559-6.56-2.829-2.83ZM33.415 10.378c-.35-.352-.866-.554-1.413-.554-.546 0-1.062.202-1.414.555l-1.447 1.447 2.828 2.829 1.448-1.448a2.005 2.005 0 0 0-.002-2.83Z" fill="#2405F2"/></svg><svg fill="none" viewBox="0 0 22 13" id="arrows" xmlns="http://www.w3.org/2000/svg"><path d="M6.263 12.786.583 6.468l5.68-6.29h2.711L3.27 6.469l5.704 6.318h-2.71ZM13.186.179h2.71l5.704 6.29-5.704 6.317h-2.71l5.704-6.318-5.704-6.29Z" fill="#fff"/></svg><svg fill="none" viewBox="0 0 108 48" id="arrows-purple" xmlns="http://www.w3.org/2000/svg"><ellipse cx="83.1" cy="24" rx="24.1" ry="24" fill="#5239FA"/><path d="M77.414 35 76 31.78l9.03-7.69L76 16.22 77.414 13 89 23.374v1.789L77.414 35Z" fill="#fff"/><ellipse cx="24.099" cy="24" rx="24.1" ry="24" transform="rotate(-180 24.1 24)" fill="#fff"/><path opacity=".6" d="M28.586 13 30 16.22l-9.03 7.69L30 31.78 28.586 35 17 24.626v-1.789L28.586 13Z" fill="#282938"/></svg><svg fill="none" viewBox="0 0 13 13" id="blue-ball" xmlns="http://www.w3.org/2000/svg"><path d="M12.854 6.804A6.145 6.145 0 0 1 6.71 12.95a6.145 6.145 0 1 1 0-12.289 6.145 6.145 0 0 1 6.146 6.144Z" fill="#8CFEE3" fill-opacity=".9"/></svg><svg fill="none" viewBox="0 0 6 23" id="bracket-left" xmlns="http://www.w3.org/2000/svg"><path d="M.04 11.055c1.36-.254 2.04-.954 2.04-2.1 0-.507-.067-1.373-.2-2.6-.134-1.306-.2-2.252-.2-2.839 0-.96.266-1.693.8-2.2.546-.506 1.273-.76 2.18-.76h1.16v1.58H5c-.52 0-.907.12-1.16.36-.254.227-.38.607-.38 1.14 0 .387.026.867.08 1.44.053.56.086.94.1 1.14.133 1.28.2 2.212.2 2.8 0 .706-.18 1.299-.54 1.779-.347.466-.887.78-1.62.94v.04c.733.16 1.273.48 1.62.96.36.48.54 1.072.54 1.779 0 .587-.067 1.52-.2 2.8-.014.2-.047.586-.1 1.16a15.37 15.37 0 0 0-.08 1.419c0 .533.126.913.38 1.14.253.24.64.36 1.16.36h.82v1.58H4.66c-.907 0-1.634-.254-2.18-.76-.534-.507-.8-1.24-.8-2.2 0-.587.066-1.533.2-2.84.133-1.226.2-2.092.2-2.599 0-1.146-.68-1.846-2.04-2.1v-1.42Z" fill="#1C1E53"/></svg><svg fill="none" viewBox="0 0 7 23" id="bracket-right" xmlns="http://www.w3.org/2000/svg"><path d="M6.255 12.474c-1.36.254-2.04.954-2.04 2.1 0 .507.067 1.373.2 2.6.133 1.306.2 2.252.2 2.839 0 .96-.273 1.693-.82 2.2-.533.506-1.254.76-2.16.76H.475v-1.58h.82c.52 0 .906-.12 1.16-.36.253-.227.38-.607.38-1.14 0-.387-.027-.86-.08-1.42a54.53 54.53 0 0 1-.1-1.16c-.134-1.28-.2-2.212-.2-2.799 0-.707.173-1.3.52-1.78.36-.48.907-.8 1.64-.96v-.04c-.733-.16-1.28-.473-1.64-.94-.347-.48-.52-1.072-.52-1.779 0-.587.066-1.52.2-2.8.013-.2.046-.58.1-1.14.053-.572.08-1.052.08-1.439 0-.533-.127-.913-.38-1.14-.254-.24-.64-.36-1.16-.36h-.82V.556h1.16c.906 0 1.627.254 2.16.76.547.507.82 1.24.82 2.2 0 .587-.067 1.533-.2 2.84-.133 1.226-.2 2.092-.2 2.6 0 1.146.68 1.845 2.04 2.099v1.42Z" fill="#1C1E53"/></svg><svg fill="none" viewBox="0 0 16 16" id="facebook" xmlns="http://www.w3.org/2000/svg"><g clip-path="url(#aga)"><path d="M16 8a8 8 0 1 0-9.25 7.903v-5.59H4.719V8H6.75V6.237c0-2.005 1.194-3.112 3.022-3.112.875 0 1.79.156 1.79.156V5.25h-1.008c-.994 0-1.304.617-1.304 1.25V8h2.219l-.355 2.313H9.25v5.59A8.002 8.002 0 0 0 16 8Z" fill="#fff"/></g><defs><clipPath id="aga"><path fill="#fff" d="M0 0h16v16H0z"/></clipPath></defs></svg><svg fill="none" viewBox="0 0 17 18" id="file" xmlns="http://www.w3.org/2000/svg"><path fill-rule="evenodd" clip-rule="evenodd" d="M11.349 4.14 8.687.065H.7v17.65h15.973V4.14H11.35Zm3.223 2.1h-4.36L7.549 2.169H2.802v13.447h11.77V6.241Z" fill="#fff"/></svg><svg fill="none" viewBox="0 0 17 16" id="instagram" xmlns="http://www.w3.org/2000/svg"><g clip-path="url(#aia)" fill="#fff"><path d="M8.334 1.44c2.138 0 2.39.01 3.231.048.782.034 1.203.165 1.485.274.371.144.64.32.918.597.282.282.454.547.597.92.11.28.24.705.275 1.484.038.843.047 1.096.047 3.23 0 2.138-.01 2.391-.047 3.232-.034.781-.165 1.203-.275 1.484-.143.372-.319.641-.597.92a2.46 2.46 0 0 1-.918.596c-.282.11-.707.24-1.485.275-.843.037-1.097.047-3.231.047-2.138 0-2.39-.01-3.231-.047-.782-.034-1.203-.166-1.485-.275a2.472 2.472 0 0 1-.918-.597 2.46 2.46 0 0 1-.597-.919c-.11-.28-.24-.706-.275-1.484-.038-.844-.047-1.097-.047-3.231 0-2.138.01-2.39.047-3.231.034-.782.165-1.204.275-1.485.143-.372.318-.64.597-.919a2.46 2.46 0 0 1 .918-.597c.282-.109.707-.24 1.485-.274.84-.038 1.093-.047 3.231-.047Zm0-1.44C6.162 0 5.89.01 5.037.047c-.85.037-1.434.175-1.94.372a3.905 3.905 0 0 0-1.42.925 3.92 3.92 0 0 0-.924 1.415C.556 3.27.418 3.85.38 4.7.343 5.556.334 5.828.334 8c0 2.172.01 2.444.047 3.297.037.85.175 1.434.372 1.94.206.529.478.976.925 1.42.443.443.89.718 1.415.921.51.197 1.091.335 1.941.372.853.038 1.125.047 3.297.047s2.444-.01 3.297-.047c.85-.037 1.434-.175 1.94-.372a3.91 3.91 0 0 0 1.416-.922c.444-.444.719-.89.922-1.415.197-.51.334-1.091.372-1.941.037-.853.047-1.125.047-3.297s-.01-2.444-.047-3.297c-.038-.85-.175-1.434-.372-1.94a3.747 3.747 0 0 0-.916-1.422 3.91 3.91 0 0 0-1.415-.922c-.51-.197-1.091-.334-1.941-.372-.856-.04-1.128-.05-3.3-.05Z"/><path d="M8.334 3.89a4.11 4.11 0 0 0 0 8.22 4.11 4.11 0 0 0 0-8.22Zm0 6.776a2.666 2.666 0 1 1 0-5.332 2.666 2.666 0 0 1 0 5.332ZM13.565 3.729a.96.96 0 1 1-1.919 0 .96.96 0 0 1 1.92 0Z"/></g><defs><clipPath id="aia"><path fill="#fff" transform="translate(.334)" d="M0 0h16v16H0z"/></clipPath></defs></svg><svg fill="none" viewBox="0 0 35 35" id="instruments" xmlns="http://www.w3.org/2000/svg"><g clip-path="url(#aja)" fill="#2405F2"><path d="m2.642 9.893 7.25-7.25-1.208-1.21a5.132 5.132 0 0 0-7.25.001A5.092 5.092 0 0 0-.069 5.059c0 1.37.533 2.657 1.501 3.625l1.209 1.209ZM4.092 11.343l2.9-2.9 4.156 4.155-2.9 2.9-4.156-4.155ZM8.442 6.992l2.9-2.9 4.156 4.155-2.9 2.9-4.156-4.155ZM24.964 30.764l-.478.478 9.04 3.616a1.022 1.022 0 0 0 1.106-.227c.29-.29.379-.725.227-1.106l-3.616-9.04-6.279 6.279ZM19.365 26.615l2.9-2.9 3.424 3.423-2.9 2.9-3.424-3.423ZM23.715 22.266l2.9-2.9 3.424 3.423-2.9 2.9-3.424-3.423ZM8.806 27.508c-.4.4-.4 1.05 0 1.45l2.659 2.658-3.016 3.015c-.4.4-1.05.4-1.45 0L.232 27.864c-.4-.4-.4-1.05 0-1.45L26.414.232c.4-.4 1.05-.4 1.45 0l6.767 6.767a1.022 1.022 0 0 1 0 1.45l-3.015 3.016-3.625-3.626a1.025 1.025 0 1 0-1.45 1.45l3.625 3.626-2.29 2.29-2.659-2.659a1.026 1.026 0 0 0-1.45 1.45l2.659 2.659-2.29 2.29-3.626-3.625a1.026 1.026 0 0 0-1.45 1.45l3.625 3.625-2.29 2.29-2.658-2.658a1.025 1.025 0 0 0-1.45 1.45l2.658 2.658-2.29 2.29L13.03 22.8a1.026 1.026 0 0 0-1.45 1.45l3.625 3.626-2.29 2.29-2.659-2.659c-.4-.4-1.05-.4-1.45 0Z"/></g><defs><clipPath id="aja"><path fill="#fff" d="M0 0h35v35H0z"/></clipPath></defs></svg><svg fill="none" viewBox="0 0 16 16" id="lenkeid" xmlns="http://www.w3.org/2000/svg"><g clip-path="url(#aka)"><path d="M14.816 0H1.18C.528 0 0 .516 0 1.153v13.69A1.17 1.17 0 0 0 1.181 16h13.635c.653 0 1.184-.519 1.184-1.153V1.153C16 .516 15.469 0 14.816 0ZM4.746 13.634H2.373V5.997h2.375v7.637ZM3.56 4.956a1.376 1.376 0 1 1-.004-2.751 1.376 1.376 0 0 1 .004 2.751Zm10.075 8.678h-2.372V9.922c0-.885-.015-2.025-1.234-2.025-1.234 0-1.422.966-1.422 1.962v3.775H6.237V5.997h2.275V7.04h.032c.315-.6 1.09-1.235 2.243-1.235 2.404 0 2.847 1.582 2.847 3.638v4.19Z" fill="#fff"/></g><defs><clipPath id="aka"><path fill="#fff" d="M0 0h16v16H0z"/></clipPath></defs></svg><svg fill="none" viewBox="0 0 16 21" id="pointer-right-black" xmlns="http://www.w3.org/2000/svg"><g style="mix-blend-mode:luminosity"><path d="m13.729 11.67-9.875 6.837c-.995.689-2.354-.023-2.354-1.233V3.01c0-1.237 1.413-1.943 2.402-1.2l9.875 7.427a1.5 1.5 0 0 1-.048 2.432Z" fill="#FC80AD"/><path d="m13.729 11.67-9.875 6.837c-.995.689-2.354-.023-2.354-1.233V3.01c0-1.237 1.413-1.943 2.402-1.2l9.875 7.427a1.5 1.5 0 0 1-.048 2.432Z" stroke="url(#ala)" stroke-width="3"/></g><defs><linearGradient id="ala" x1="-4.846" y1="-17" x2="11.607" y2="11.322" gradientUnits="userSpaceOnUse"><stop stop-color="#fff"/><stop offset="1" stop-color="#fff" stop-opacity="0"/></linearGradient></defs></svg><svg fill="none" viewBox="0 0 16 21" id="pointer-right-green" xmlns="http://www.w3.org/2000/svg"><path d="m13.729 11.67-9.875 6.837c-.995.689-2.354-.023-2.354-1.233V3.01c0-1.237 1.413-1.943 2.402-1.2l9.875 7.427a1.5 1.5 0 0 1-.048 2.432Z" fill="#97DAAD" stroke="url(#ama)" stroke-width="3"/><defs><linearGradient id="ama" x1="-4.846" y1="-17" x2="11.607" y2="11.322" gradientUnits="userSpaceOnUse"><stop stop-color="#fff"/><stop offset="1" stop-color="#fff" stop-opacity="0"/></linearGradient></defs></svg><svg fill="none" viewBox="0 0 13 13" id="purple-ball" xmlns="http://www.w3.org/2000/svg"><path d="M12.368 6.804a6.145 6.145 0 0 1-6.146 6.145 6.145 6.145 0 1 1 0-12.289 6.145 6.145 0 0 1 6.146 6.144Z" fill="#FF8DA9" fill-opacity=".9"/></svg><svg fill="none" viewBox="0 0 43 45" id="reload" xmlns="http://www.w3.org/2000/svg"><g filter="url(#aoa)"><path fill-rule="evenodd" clip-rule="evenodd" d="M19.055 12.554c-.005.217.034.32.232.32h4.773c.864.065 1.637.28 2.291.7.454.292.786.639 1.036 1.023.443.681.694 1.664.83 2.458.058.343.085.664.023.813a.237.237 0 0 1-.133.14c-.328.124-.675-.304-.86-.509-.88-.975-2.16-1.378-3.668-1.454h-4.363c-.156.026-.212.135-.196.304v1.163c-.01.387-.215.519-.623.388l-3.757-2.792-.37-.274-.094-.07c-.302-.258-.178-.492.093-.694l.287-.214 3.6-2.683c.44-.328.9-.415.9.29v1.091Zm4.181 11.873c.006-.216-.033-.32-.231-.32h-4.773c-.864-.064-1.637-.28-2.291-.7a3.408 3.408 0 0 1-1.04-1.029c-.453-.7-.748-1.84-.857-2.657-.035-.261-.042-.488.008-.607a.237.237 0 0 1 .133-.14c.328-.124.675.304.86.509.88.974 2.16 1.378 3.668 1.453h4.363c.156-.025.212-.135.196-.303v-1.164c.01-.387.215-.518.623-.388l3.757 2.792.37.275.094.07c.302.257.178.491-.093.694l-.287.213-3.6 2.684c-.439.327-.9.415-.9-.291v-1.09Z" fill="#88F1DB"/></g><defs><filter id="aoa" x="0" y=".927" width="42.292" height="43.128" filterUnits="userSpaceOnUse" color-interpolation-filters="sRGB"><feFlood flood-opacity="0" result="BackgroundImageFix"/><feColorMatrix in="SourceAlpha" values="0 0 0 0 0 0 0 0 0 0 0 0 0 0 0 0 0 0 127 0" result="hardAlpha"/><feOffset dy="4"/><feGaussianBlur stdDeviation="7"/><feComposite in2="hardAlpha" operator="out"/><feColorMatrix values="0 0 0 0 0.533333 0 0 0 0 0.945098 0 0 0 0 0.858824 0 0 0 1 0"/><feBlend in2="BackgroundImageFix" result="effect1_dropShadow_757_719"/><feBlend in="SourceGraphic" in2="effect1_dropShadow_757_719" result="shape"/></filter></defs></svg><svg fill="none" viewBox="0 0 25 12" id="right-arrow" xmlns="http://www.w3.org/2000/svg"><path d="M24.53 6.53a.75.75 0 0 0 0-1.06L19.757.697a.75.75 0 0 0-1.06 1.06L22.939 6l-4.242 4.243a.75.75 0 0 0 1.06 1.06L24.53 6.53ZM0 6.75h24v-1.5H0v1.5Z" fill="#F4F6FC"/></svg><svg fill="none" viewBox="0 0 25 12" id="right-arrow-black" xmlns="http://www.w3.org/2000/svg"><path d="M24.53 6.53a.75.75 0 0 0 0-1.06L19.757.697a.75.75 0 0 0-1.06 1.06L22.939 6l-4.242 4.243a.75.75 0 0 0 1.06 1.06L24.53 6.53ZM0 6.75h24v-1.5H0v1.5Z" fill="#282938"/></svg><svg fill="none" viewBox="0 0 25 12" id="right-arrow-blue" xmlns="http://www.w3.org/2000/svg"><path d="M24.53 6.53a.75.75 0 0 0 0-1.06L19.757.697a.75.75 0 0 0-1.06 1.06L22.939 6l-4.242 4.243a.75.75 0 0 0 1.06 1.06L24.53 6.53ZM0 6.75h24v-1.5H0v1.5Z" fill="#2405F2"/></svg><svg fill="none" viewBox="0 0 25 12" id="right-arrow-purple" xmlns="http://www.w3.org/2000/svg"><path d="M24.53 6.53a.75.75 0 0 0 0-1.06L19.757.697a.75.75 0 0 0-1.06 1.06L22.939 6l-4.242 4.243a.75.75 0 0 0 1.06 1.06L24.53 6.53ZM0 6.75h24v-1.5H0v1.5Z" fill="#FCD980"/></svg><svg fill="none" viewBox="0 0 25 12" id="right-arrow-yellow" xmlns="http://www.w3.org/2000/svg"><path d="M24.53 6.53a.75.75 0 0 0 0-1.06L19.757.697a.75.75 0 0 0-1.06 1.06L22.939 6l-4.242 4.243a.75.75 0 0 0 1.06 1.06L24.53 6.53ZM0 6.75h24v-1.5H0v1.5Z" fill="#FCD980"/></svg><svg fill="none" viewBox="0 0 126 116" id="settings" xmlns="http://www.w3.org/2000/svg"><path fill-rule="evenodd" clip-rule="evenodd" d="M63.263 77.326c-11.545 0-20.904-8.653-20.904-19.326s9.36-19.326 20.904-19.326c11.545 0 20.904 8.653 20.904 19.326s-9.359 19.326-20.904 19.326ZM126 66.742V49.258l-14.906-3.502a43.703 43.703 0 0 0-4.647-10.364l7.864-12.223-13.373-12.363-13.221 7.27a51.618 51.618 0 0 0-11.21-4.296L72.719 0H53.807L50.02 13.78a51.61 51.61 0 0 0-11.21 4.296l-13.222-7.27L12.215 23.17l7.863 12.223a43.766 43.766 0 0 0-4.646 10.364L.526 49.258v17.484l14.906 3.502a43.772 43.772 0 0 0 4.646 10.364L12.215 92.83l13.373 12.363 13.221-7.27a51.636 51.636 0 0 0 11.21 4.296L53.808 116h18.912l3.788-13.78a51.644 51.644 0 0 0 11.21-4.296l13.221 7.27 13.373-12.363-7.864-12.223a43.712 43.712 0 0 0 4.647-10.364L126 66.742Z" fill="#FCD980"/></svg><svg fill="none" viewBox="0 0 32 32" id="sucsess" xmlns="http://www.w3.org/2000/svg"><path d="M16 0C7.212 0 0 7.212 0 16s7.212 16 16 16 16-7.212 16-16S24.788 0 16 0Zm-1.936 23.277-7.007-7.006L9.71 13.62l4.477 4.478 8.99-8.172 2.523 2.774-11.635 10.578Z" fill="#2405F2"/></svg><svg fill="none" viewBox="0 0 35 35" id="supports" xmlns="http://www.w3.org/2000/svg"><g clip-path="url(#awa)" fill="#2405F2"><path d="M35 23.686c0-4.343-2.492-8.22-6.224-10.105-.116 8.328-6.867 15.08-15.195 15.195C15.467 32.508 19.343 35 23.686 35c2.036 0 4.017-.542 5.757-1.572l5.507 1.523-1.523-5.507a11.273 11.273 0 0 0 1.572-5.757Z"/><path d="M26.729 13.364C26.729 5.995 20.733 0 13.364 0 5.995 0 0 5.995 0 13.364c0 2.402.64 4.74 1.853 6.793L.05 26.68l6.522-1.804a13.323 13.323 0 0 0 6.793 1.854c7.37 0 13.364-5.995 13.364-13.365Zm-15.415-3.11H9.262a4.106 4.106 0 0 1 4.101-4.102 4.106 4.106 0 0 1 4.102 4.102 4.112 4.112 0 0 1-1.334 3.027l-1.742 1.594v1.6h-2.051v-2.503l2.409-2.204a2.03 2.03 0 0 0 .667-1.514c0-1.131-.92-2.05-2.05-2.05-1.132 0-2.052.919-2.052 2.05Zm1.025 8.271h2.05v2.051h-2.05v-2.05Z"/></g><defs><clipPath id="awa"><path fill="#fff" d="M0 0h35v35H0z"/></clipPath></defs></svg><svg fill="none" viewBox="0 0 35 35" id="time" xmlns="http://www.w3.org/2000/svg"><g clip-path="url(#axa)"><path d="m29.304 9.944 2.352-2.35c.57-.57.57-1.492 0-2.063a1.457 1.457 0 0 0-2.062 0l-2.352 2.351a15.24 15.24 0 0 0-8.284-3.433V2.917h2.917a1.458 1.458 0 1 0 0-2.917h-8.75a1.458 1.458 0 1 0 0 2.917h2.917v1.532C8.28 5.186 2.187 11.737 2.187 19.688 2.188 28.13 9.058 35 17.5 35c8.444 0 15.313-6.869 15.313-15.313 0-3.698-1.319-7.093-3.51-9.743Zm-10.346 9.743a1.458 1.458 0 1 1-2.916 0v-8.02a1.458 1.458 0 1 1 2.916 0v8.02Z" fill="#2405F2"/></g><defs><clipPath id="axa"><path fill="#fff" d="M0 0h35v35H0z"/></clipPath></defs></svg><svg fill="none" viewBox="0 0 17 16" id="twitter" xmlns="http://www.w3.org/2000/svg"><g clip-path="url(#aya)"><path d="M5.7 14.5c6.036 0 9.338-5.002 9.338-9.338 0-.14-.003-.285-.01-.425a6.665 6.665 0 0 0 1.638-1.7 6.472 6.472 0 0 1-1.884.516 3.3 3.3 0 0 0 1.443-1.815 6.598 6.598 0 0 1-2.083.796 3.287 3.287 0 0 0-5.596 2.993A9.323 9.323 0 0 1 1.78 2.1a3.286 3.286 0 0 0 1.016 4.38 3.287 3.287 0 0 1-1.487-.409v.04a3.281 3.281 0 0 0 2.634 3.22c-.483.132-.99.15-1.481.056a3.289 3.289 0 0 0 3.065 2.281 6.583 6.583 0 0 1-4.862 1.358 9.312 9.312 0 0 0 5.033 1.475Z" fill="#fff"/></g><defs><clipPath id="aya"><path fill="#fff" transform="translate(.666)" d="M0 0h16v16H0z"/></clipPath></defs></svg><svg fill="none" viewBox="0 0 32 28" id="users" xmlns="http://www.w3.org/2000/svg"><path d="M16 10.875A5.437 5.437 0 1 0 16 0a5.437 5.437 0 0 0 0 10.875ZM27 10.875A3.437 3.437 0 1 0 27 4a3.437 3.437 0 0 0 0 6.875ZM5 10.875A3.437 3.437 0 1 0 5 4a3.437 3.437 0 0 0 0 6.875ZM8.387 13.961C7.034 12.853 5.808 13 4.244 13 1.904 13 0 14.892 0 17.218v6.825c0 1.01.824 1.832 1.838 1.832 4.377 0 3.85.079 3.85-.19 0-4.836-.573-8.383 2.699-11.723Z" fill="#2405F2"/><path d="M17.488 13.025c-2.732-.228-5.108.002-7.157 1.694-3.428 2.746-2.768 6.444-2.768 10.967 0 1.197.973 2.189 2.188 2.189 13.193 0 13.718.425 14.5-1.307.257-.586.186-.4.186-6.004 0-4.452-3.854-7.54-6.949-7.54ZM27.756 13c-1.573 0-2.791-.145-4.143.962 3.248 3.316 2.7 6.621 2.7 11.724 0 .27-.438.19 3.783.19 1.05 0 1.904-.851 1.904-1.897v-6.76C32 14.892 30.096 13 27.756 13Z" fill="#2405F2"/></svg><svg fill="none" viewBox="0 0 13 13" id="yellow-ball" xmlns="http://www.w3.org/2000/svg"><path d="M12.343 6.804a6.145 6.145 0 0 1-6.146 6.145 6.145 6.145 0 1 1 0-12.289 6.145 6.145 0 0 1 6.146 6.144Z" fill="#FED280"/></svg></svg>